<?xml version="1.0" encoding="UTF-8"?>
<svg version="1.1" xmlns="http://www.w3.org/2000/svg" width="202" height="202">
<path d="M0 0 C66.66 0 133.32 0 202 0 C202 66.66 202 133.32 202 202 C135.34 202 68.68 202 0 202 C0 135.34 0 68.68 0 0 Z " fill="#020202" transform="translate(0,0)"/>
<path d="M0 0 C2.62187494 1.04874998 3.79371361 1.64931313 5.25 4.125 C5.62125 5.053125 5.62125 5.053125 6 6 C5.46890625 6.65226562 4.9378125 7.30453125 4.390625 7.9765625 C3.68421875 8.85054687 2.9778125 9.72453125 2.25 10.625 C1.51265625 11.53636719 0.7753125 12.44773437 0.015625 13.38671875 C-2.12820051 16.04941529 -2.12820051 16.04941529 -4 19.4375 C-6 22 -6 22 -9.44287109 23.03271484 C-15.83616926 25.30580365 -20.195623 30.35274929 -24.9140625 35.0390625 C-25.93846895 36.04483307 -26.96316263 37.05031117 -27.98812866 38.05551147 C-30.12338908 40.15647863 -32.2479585 42.26763556 -34.36669922 44.38525391 C-37.07956033 47.09301412 -39.82744221 49.76199123 -42.58579445 52.42328835 C-44.70984094 54.48418725 -46.80849346 56.56956761 -48.90089035 58.66254807 C-49.90393758 59.65786766 -50.91594611 60.64424254 -51.93696976 61.62111282 C-57.73095307 66.71210897 -57.73095307 66.71210897 -60.07098389 73.60418701 C-59.54210123 76.04342513 -59.54210123 76.04342513 -58.57919312 78.21688843 C-58.38805939 78.80531525 -58.19692566 79.39374207 -58 80 C-60.11035747 82.11035747 -61.04550939 82.42466437 -63.8125 83.25 C-68.08903616 84.8198677 -70.72754497 87.03967076 -73 91 C-73.69673871 92.69629078 -74.36193822 94.40577797 -75 96.125 C-76.61796008 100.46760484 -78.13359523 102.33033956 -82 105 C-83.02815712 106.12063686 -84.02638623 107.26916347 -85 108.4375 C-88.2192246 112.29068955 -91.51881527 115.85208184 -95.5 118.9375 C-98.45680504 121.37686416 -100.61635488 124.00341756 -103 127 C-109.50182307 125.85932929 -113.55465392 123.9510336 -118 119 C-120.39089653 115.22084098 -121.67671991 112.45349974 -121 108 C-119.22710313 105.70483405 -117.52251701 103.77401492 -115.48046875 101.74609375 C-114.90726395 101.16336197 -114.33405914 100.58063019 -113.7434845 99.98023987 C-112.5248748 98.74946768 -111.29971898 97.52514766 -110.06860352 96.30688477 C-108.21096005 94.4608139 -106.38739177 92.58534655 -104.56445312 90.70507812 C-98.62401473 84.70030285 -93.64137719 79.81464722 -85.20654297 77.68334961 C-81.3697826 76.49513404 -80.08423806 74.36167429 -78 71 C-77.649375 69.9275 -77.29875 68.855 -76.9375 67.75 C-76 65 -76 65 -73.875 63.625 C-73.25625 63.41875 -72.6375 63.2125 -72 63 C-70.02 64.485 -70.02 64.485 -68 66 C-64.48800266 64.49378399 -62.18917874 62.45852716 -59.47851562 59.78491211 C-58.59079468 58.91317856 -57.70307373 58.04144501 -56.78845215 57.14329529 C-55.82723846 56.18846071 -54.86651658 55.23313081 -53.90625 54.27734375 C-52.91271026 53.2927792 -51.91909744 52.30828838 -50.92541504 51.3238678 C-48.84384285 49.25877104 -46.76669293 47.18933257 -44.69189453 45.11743164 C-42.04756916 42.47847371 -39.38750345 39.85602662 -36.72309113 37.2373724 C-34.66406366 35.20826935 -32.61656001 33.16782408 -30.57194519 31.12420845 C-29.59693599 30.1533748 -28.61785078 29.18661527 -27.63447571 28.22425652 C-22.49390673 23.18484875 -18.21184138 18.80375272 -15.87872314 11.89370728 C-14.17003423 8.21136814 -10.63966744 6.4334951 -7.25 4.4375 C-6.55261719 4.00115234 -5.85523438 3.56480469 -5.13671875 3.11523438 C-3.43728361 2.05599741 -1.72034294 1.02493068 0 0 Z " fill="#F8F8F8" transform="translate(155,40)"/>
<path d="M0 0 C29.7 0 59.4 0 90 0 C90 0.33 90 0.66 90 1 C88.96166016 1.12955078 88.96166016 1.12955078 87.90234375 1.26171875 C61.87148778 5.00001032 38.01751186 18.25542395 21.6640625 38.95703125 C10.74933136 54.06257213 3.76866066 70.52283304 1 89 C0.67 89 0.34 89 0 89 C0 59.63 0 30.26 0 0 Z " fill="#FBFBFB" transform="translate(0,0)"/>
<path d="M0 0 C29.7 0 59.4 0 90 0 C90 29.04 90 58.08 90 88 C89.67 88 89.34 88 89 88 C88.78085938 86.94683594 88.56171875 85.89367187 88.3359375 84.80859375 C84.06262183 65.05632784 76.60017615 48.26366877 63 33 C62.25105469 32.15566406 61.50210938 31.31132812 60.73046875 30.44140625 C50.41860206 19.47970385 38.01978656 12.21437676 24 7 C22.97003906 6.61070312 21.94007813 6.22140625 20.87890625 5.8203125 C14.01836416 3.37585407 7.21054897 1.97163426 0 1 C0 0.67 0 0.34 0 0 Z " fill="#FAFAFA" transform="translate(112,0)"/>
<path d="M0 0 C0.33 0 0.66 0 1 0 C1 29.7 1 59.4 1 90 C-28.7 90 -58.4 90 -89 90 C-89 89.67 -89 89.34 -89 89 C-88.09121094 88.84144531 -87.18242188 88.68289062 -86.24609375 88.51953125 C-58.77557455 83.41987589 -34.36641834 70.65801412 -17.88745117 47.55126953 C-8.04437883 33.01984152 -2.71243757 17.28514138 0 0 Z " fill="#FAFAFA" transform="translate(201,112)"/>
<path d="M0 0 C0.33 0 0.66 0 1 0 C1.12375 0.92296875 1.2475 1.8459375 1.375 2.796875 C4.72285986 24.92962841 14.47849928 43.97236339 30 60 C30.5878125 60.67289063 31.175625 61.34578125 31.78125 62.0390625 C45.72300754 77.38722541 69.70548691 87.37643895 90 89 C90 89.33 90 89.66 90 90 C60.3 90 30.6 90 0 90 C0 60.3 0 30.6 0 0 Z " fill="#FBFBFB" transform="translate(0,112)"/>
<path d="M0 0 C5.21874713 4.40694202 10.25637203 8.97618409 15.25390625 13.6328125 C20.19010024 17.88791002 23.81688129 20.36483112 30.375 21 C39.85051579 22.25981289 45.90874502 25.57124723 52 33 C54.33847834 36.84717404 55 38.4580895 55 43 C49.80773304 41.63361396 45.86573827 39.11322313 41.46484375 36.14453125 C38.43381306 34.73709545 37.11574481 34.88576014 34 36 C30.27556581 39.72443419 28.218978 42.79163944 27 48 C27 49.65 27 51.3 27 53 C32.28 55.97 37.56 58.94 43 62 C42.67 63.32 42.34 64.64 42 66 C32.0231023 66.45579736 22.80961976 65.90152444 15 59 C11.95951233 54.33207181 10.87348951 50.02543837 10.6875 44.5 C10.09970827 36.15566246 4.90570042 31.83926496 -0.8359375 26.24609375 C-1.51833496 25.57803711 -2.20073242 24.90998047 -2.90380859 24.22167969 C-4.29099489 22.87553058 -5.69231283 21.54377896 -7.10791016 20.22753906 C-7.7529248 19.60975586 -8.39793945 18.99197266 -9.0625 18.35546875 C-9.65160156 17.80528076 -10.24070312 17.25509277 -10.84765625 16.68823242 C-12 15 -12 15 -11.84008789 12.96508789 C-10.4707201 9.76193724 -7.9202179 7.61183651 -5.4375 5.25 C-4.91736328 4.74339844 -4.39722656 4.23679687 -3.86132812 3.71484375 C-2.58089916 2.46965595 -1.29132446 1.23388498 0 0 Z " fill="#F8F8F8" transform="translate(113,97)"/>
<path d="M0 0 C9.41280989 -0.48827256 18.3662848 -0.84734245 25.875 5.61328125 C29.59531724 9.64660595 31.87467414 13.67316818 32.0859375 19.28125 C32.39086159 26.88089645 34.91310579 30.49682966 40 36 C40.52899902 36.57959473 41.05799805 37.15918945 41.60302734 37.75634766 C45.36319671 41.87482795 49.16765368 45.94866246 53 50 C51.41332422 53.90285767 48.86649519 56.33520982 45.875 59.25 C44.96492188 60.14203125 44.05484375 61.0340625 43.1171875 61.953125 C42.41851562 62.62859375 41.71984375 63.3040625 41 64 C37.0184303 62.40550722 34.62285822 59.75571743 31.6875 56.6875 C24.06596397 48.96947297 20.19202511 45.95637461 9.28515625 44.56640625 C0.84258167 43.11078994 -4.73287956 39.21434331 -9.66015625 32.29296875 C-11.46129228 29.21055811 -12.33028031 26.49742507 -13 23 C-7.41930236 23.71942695 -3.50096225 26.62738096 1.16015625 29.6015625 C3.80435007 31.19827266 3.80435007 31.19827266 6.20703125 30.8515625 C9.88641951 29.10405348 12.33814779 26.22442659 14.25 22.6875 C15.24255531 19.13084348 15.62635911 15.67413538 16 12 C15.30519531 11.74476562 14.61039063 11.48953125 13.89453125 11.2265625 C10.64682551 9.85034172 7.72017084 8.17460687 4.6875 6.375 C3.61886719 5.74335937 2.55023438 5.11171875 1.44921875 4.4609375 C0.64097656 3.97882812 -0.16726562 3.49671875 -1 3 C-0.67 2.01 -0.34 1.02 0 0 Z " fill="#F7F7F7" transform="translate(50,36)"/>
<path d="M0 0 C4.42323682 0.58265272 7.5155864 2.26766211 11.3125 4.5625 C12.38113281 5.20316406 13.44976562 5.84382813 14.55078125 6.50390625 C15.35902344 6.99761719 16.16726562 7.49132812 17 8 C16.01 8.66 15.02 9.32 14 10 C13.67 9.01 13.34 8.02 13 7 C12.34 7.66 11.68 8.32 11 9 C9.66666667 10.33333333 8.33333333 11.66666667 7 13 C0 4.79310345 0 4.79310345 0 0 Z " fill="#F2F2F2" transform="translate(37,59)"/>
<path d="M0 0 C0.66 0.66 1.32 1.32 2 2 C1.34 2.66 0.68 3.32 0 4 C-0.268125 4.59554687 -0.53625 5.19109375 -0.8125 5.8046875 C-2.41910188 8.77478702 -4.58557457 10.77374268 -7 13.125 C-7.886875 13.99382812 -8.77375 14.86265625 -9.6875 15.7578125 C-10.450625 16.49773437 -11.21375 17.23765625 -12 18 C-12.66 18.66 -13.32 19.32 -14 20 C-14 19.34 -14 18.68 -14 18 C-14.66 18 -15.32 18 -16 18 C-16.33 18.66 -16.66 19.32 -17 20 C-17 17 -17 17 -15.43945312 15.09887695 C-14.37114258 14.05413208 -14.37114258 14.05413208 -13.28125 12.98828125 C-12.51425781 12.23095703 -11.74726562 11.47363281 -10.95703125 10.69335938 C-10.14621094 9.90767578 -9.33539063 9.12199219 -8.5 8.3125 C-7.68917969 7.51521484 -6.87835938 6.71792969 -6.04296875 5.89648438 C-4.03517797 3.9241252 -2.0207313 1.95908508 0 0 Z " fill="#080808" transform="translate(114,91)"/>
<path d="M0 0 C2.64 1.32 5.28 2.64 8 4 C7.67 5.32 7.34 6.64 7 8 C3.04 8 -0.92 8 -5 8 C-5.33 7.01 -5.66 6.02 -6 5 C-4.02 3.35 -2.04 1.7 0 0 Z " fill="#F2F2F2" transform="translate(148,155)"/>
<path d="M0 0 C0.66 0 1.32 0 2 0 C2 0.66 2 1.32 2 2 C2.99 2.33 3.98 2.66 5 3 C1.6189962 7.13621084 -1.66590534 10.81316569 -6 14 C-4.85346788 9.03169413 -3.70240738 6.45558022 0 3 C0 2.01 0 1.02 0 0 Z " fill="#090909" transform="translate(102,85)"/>
<path d="M0 0 C0.33 1.32 0.66 2.64 1 4 C-0.11375 4.5878125 -0.11375 4.5878125 -1.25 5.1875 C-4.23869035 7.15731864 -5.79886124 9.19855068 -8 12 C-9.93957313 13.75758849 -11.94969519 15.36907572 -14 17 C-14 14 -14 14 -12.71484375 12.37426758 C-12.12832031 11.80345459 -11.54179688 11.2326416 -10.9375 10.64453125 C-10.30585937 10.02255859 -9.67421875 9.40058594 -9.0234375 8.75976562 C-8.35570312 8.11716797 -7.68796875 7.47457031 -7 6.8125 C-6.33226562 6.15830078 -5.66453125 5.50410156 -4.9765625 4.83007812 C-3.32421559 3.21313865 -1.66528399 1.60359509 0 0 Z " fill="#0C0C0C" transform="translate(138,67)"/>
<path d="M0 0 C2.18847656 0.34204102 2.18847656 0.34204102 4 1 C3.34 1 2.68 1 2 1 C2 1.66 2 2.32 2 3 C1.29875 3.391875 0.5975 3.78375 -0.125 4.1875 C-3.86302202 6.5440791 -6.26670095 9.57163521 -9 13 C-9.99 12.67 -10.98 12.34 -12 12 C-10.09797311 9.96339574 -8.18061509 7.94668664 -6.25 5.9375 C-5.71117187 5.35677734 -5.17234375 4.77605469 -4.6171875 4.17773438 C-3.015625 2.52734375 -3.015625 2.52734375 0 0 Z " fill="#DADADA" transform="translate(61,121)"/>
<path d="M0 0 C2.475 0.99 2.475 0.99 5 2 C4.67 2.99 4.34 3.98 4 5 C1.69 5.33 -0.62 5.66 -3 6 C-2.42655063 3.13275314 -2.1385485 2.1385485 0 0 Z " fill="#EBEBEB" transform="translate(81,103)"/>
<path d="M0 0 C0.66 0.33 1.32 0.66 2 1 C-0.625 6.75 -0.625 6.75 -4 9 C-4.99 8.01 -5.98 7.02 -7 6 C-4.69 4.02 -2.38 2.04 0 0 Z " fill="#080808" transform="translate(96,94)"/>
<path d="M0 0 C0 3.93169105 -1.39419615 5.16427228 -4 8 C-4.66 8 -5.32 8 -6 8 C-6.2475 8.639375 -6.495 9.27875 -6.75 9.9375 C-8 12 -8 12 -10.078125 12.62890625 C-11.02945313 12.81259766 -11.02945313 12.81259766 -12 13 C-8.19524578 8.43969176 -4.25030379 4.14910608 0 0 Z " fill="#E8E8E8" transform="translate(113,97)"/>
<path d="M0 0 C4.75 0.75 4.75 0.75 7 3 C5.35 4.32 3.7 5.64 2 7 C1.34 4.69 0.68 2.38 0 0 Z " fill="#E8E8E8" transform="translate(37,59)"/>
<path d="M0 0 C0.66 1.32 1.32 2.64 2 4 C1.01 4.99 0.02 5.98 -1 7 C-1 6.34 -1 5.68 -1 5 C-1.66 5 -2.32 5 -3 5 C-3.33 5.66 -3.66 6.32 -4 7 C-4 4 -4 4 -2 1.8125 C-1.34 1.214375 -0.68 0.61625 0 0 Z " fill="#101010" transform="translate(101,104)"/>
<path d="M0 0 C0.66 0 1.32 0 2 0 C2 0.66 2 1.32 2 2 C2.99 2.33 3.98 2.66 5 3 C3.68 4.32 2.36 5.64 1 7 C0.67 4.69 0.34 2.38 0 0 Z " fill="#151515" transform="translate(102,85)"/>
</svg>
