<?xml version="1.0" encoding="UTF-8"?>
<svg version="1.1" xmlns="http://www.w3.org/2000/svg" width="600" height="600">
<path d="M0 0 C4.89360339 1.9249314 8.26256062 6.52055281 11.72460938 10.32275391 C13.31732573 11.96440559 14.9901728 13.42680922 16.734375 14.90625 C23.7226979 20.91709856 30.05838214 27.6496474 36.53466797 34.19970703 C45.20529908 42.97540538 45.20529908 42.97540538 54.36083984 51.23681641 C58.17802311 54.58244771 61.71836917 58.21968919 65.296875 61.81640625 C66.06064453 62.57630859 66.82441406 63.33621094 67.61132812 64.11914062 C68.36478516 64.87388672 69.11824219 65.62863281 69.89453125 66.40625 C70.56105713 67.07390381 71.22758301 67.74155762 71.91430664 68.42944336 C73.85660555 70.48006789 75.70891727 72.56691473 77.55444336 74.70336914 C81.02729271 78.69560711 84.68776167 82.44519022 88.453125 86.16015625 C89.11469604 86.81794067 89.77626709 87.4757251 90.45788574 88.15344238 C92.54760235 90.23107899 94.64054815 92.30541252 96.734375 94.37890625 C99.497792 97.11548775 102.25771222 99.85552888 105.015625 102.59765625 C105.63562378 103.20935669 106.25562256 103.82105713 106.89440918 104.45129395 C110.65453027 108.19062828 114.2065796 112.05311843 117.65783691 116.07971191 C120.0533842 118.81358504 122.63294148 121.3429935 125.234375 123.87890625 C129.22275506 127.81281209 133.02600558 131.8182303 136.66015625 136.0859375 C138.79070482 138.51254245 141.08940447 140.74608527 143.39331055 143.0065918 C145.16306106 144.80638183 146.81652383 146.65992227 148.4609375 148.57421875 C152.23120974 152.91072966 156.15281129 157.08774851 160.109375 161.25390625 C165.19141209 166.62907067 170.23439478 172.0277834 175.15625 177.55078125 C177.53830692 180.21940141 179.94812834 182.86164194 182.359375 185.50390625 C185.77171029 189.25274302 189.1384155 193.03437202 192.46484375 196.859375 C196.01014454 200.90555714 199.62896499 204.88633812 203.234375 208.87890625 C212.19537026 218.80215603 220.96151539 228.8739237 229.65380859 239.03222656 C232.17898646 241.98255794 234.70676945 244.93065476 237.234375 247.87890625 C238.23438841 249.04556142 239.23438839 250.2122281 240.234375 251.37890625 C240.729375 251.95640625 241.224375 252.53390625 241.734375 253.12890625 C243.234375 254.87890625 244.734375 256.62890625 246.234375 258.37890625 C246.7296167 258.95664795 247.2248584 259.53438965 247.73510742 260.12963867 C248.73282695 261.29372602 249.73038614 262.45795081 250.7277832 263.62231445 C253.26136243 266.57960512 255.79787637 269.53428994 258.33984375 272.484375 C263.63003994 278.62941747 268.85087905 284.81597339 273.96484375 291.109375 C276.4836644 294.18311655 279.03976586 297.22262325 281.609375 300.25390625 C282.07093994 300.79869629 282.53250488 301.34348633 283.00805664 301.90478516 C285.32994605 304.64234881 287.65772962 307.37470996 289.9921875 310.1015625 C295.10347118 316.0858152 300.0672403 322.15428208 304.8984375 328.36694336 C308.59569159 333.1063284 312.39955824 337.75039217 316.234375 342.37890625 C321.54682292 348.79687653 326.781818 355.2648555 331.87890625 361.85546875 C333.3051253 363.68613797 334.75475604 365.4993217 336.24609375 367.27734375 C338.78267319 370.36381104 340.11409506 372.28844108 340.921875 376.25390625 C338.38676492 389.62085031 327.59047681 399.79524889 317.234375 407.87890625 C311.05485505 412.03553402 304.83766801 416.05246073 297.234375 416.50390625 C295.996875 416.61605469 295.996875 416.61605469 294.734375 416.73046875 C290.5580201 415.30789786 289.2013007 411.57907719 287.234375 407.87890625 C286.69474121 406.87730469 286.15510742 405.87570312 285.59912109 404.84375 C284.03096738 401.90159087 282.47942648 398.95167288 280.9342041 395.99746704 C261.52465332 358.97292391 239.01467967 323.53515127 214.234375 289.87890625 C213.15057612 288.39877827 212.06724308 286.91830909 210.984375 285.4375 C208.40632109 281.91406571 205.82226694 278.39512014 203.234375 274.87890625 C196.88936325 280.11618103 191.10178387 285.8654009 185.296875 291.68359375 C184.2476227 292.73217074 183.19822213 293.7805994 182.14868164 294.82888794 C179.95849631 297.01760633 177.77011052 299.20810373 175.58300781 301.39990234 C172.7993964 304.1892033 170.01132794 306.97399894 167.22187805 309.75745964 C165.05630361 311.91939518 162.89314779 314.08373819 160.73068237 316.24878311 C159.70450933 317.27561661 158.67761139 318.30172629 157.64993286 319.32705307 C152.59142295 324.3765238 147.6433963 329.46554923 142.98757935 334.8921814 C139.43899888 338.91342001 135.62995321 342.68836321 131.85546875 346.49609375 C130.96634293 347.39329132 130.0772171 348.29048889 129.16114807 349.21487427 C127.28589822 351.10388668 125.40932878 352.99149437 123.53100586 354.87744141 C121.63153109 356.78574793 119.73824065 358.69987058 117.8503418 360.61962891 C107.58378739 371.04655623 97.64850109 381.03364101 85.234375 388.87890625 C84.36643311 389.45648682 83.49849121 390.03406738 82.60424805 390.62915039 C71.73880987 397.784854 57.28347324 403.89709995 44.234375 404.87890625 C41.84765625 403.9375 41.84765625 403.9375 40.234375 402.87890625 C45.84448896 395.83186936 51.52100556 388.84238045 57.234375 381.87890625 C58.73465817 380.04580463 60.23465908 378.21247198 61.734375 376.37890625 C62.48332031 375.46367187 63.23226562 374.5484375 64.00390625 373.60546875 C65.43937435 371.85072841 66.87431296 370.0955547 68.30859375 368.33984375 C73.54642663 361.93051775 78.80614719 355.53947429 84.06982422 349.15136719 C88.80424263 343.40435563 93.52363529 337.64534846 98.234375 331.87890625 C100.4905994 329.12085961 102.74725517 326.36316628 105.00390625 323.60546875 C106.43937435 321.85072841 107.87431296 320.0955547 109.30859375 318.33984375 C114.54642663 311.93051775 119.80614719 305.53947429 125.06982422 299.15136719 C129.80424263 293.40435563 134.52363529 287.64534846 139.234375 281.87890625 C141.4905994 279.12085961 143.74725517 276.36316628 146.00390625 273.60546875 C147.43937435 271.85072841 148.87431296 270.0955547 150.30859375 268.33984375 C151.00597656 267.48648437 151.70335937 266.633125 152.421875 265.75390625 C153.14890625 264.861875 153.8759375 263.96984375 154.625 263.05078125 C156.67741775 260.54373484 158.75828231 258.06163718 160.84375 255.58203125 C161.47514893 254.82680176 162.10654785 254.07157227 162.75708008 253.29345703 C164.01218087 251.79271303 165.2722715 250.29612495 166.5378418 248.80419922 C169.44467685 245.31793801 171.92169622 242.31245709 173.234375 237.87890625 C169.66035837 241.36965726 166.32396005 244.98996752 163.109375 248.81640625 C162.63564453 249.37779297 162.16191406 249.93917969 161.67382812 250.51757812 C157.79725298 255.14181506 154.07029491 259.87379264 150.36743164 264.63745117 C146.74397024 269.28015221 142.97705953 273.78333466 139.15283203 278.26123047 C135.74354374 282.25811603 132.44034042 286.32608318 129.17578125 290.44140625 C126.40808697 293.91633831 123.58629116 297.3460591 120.76953125 300.78125 C117.83088861 304.36796724 114.90751894 307.9670547 111.984375 311.56640625 C111.43595947 312.2416333 110.88754395 312.91686035 110.32250977 313.61254883 C108.6263159 315.70121374 106.93031158 317.79003242 105.234375 319.87890625 C98.70013269 327.92708914 92.16294952 335.97248954 85.59375 343.9921875 C80.4585275 350.27518324 75.34905624 356.57918731 70.234375 362.87890625 C66.90765496 366.97640525 63.58052515 371.07356168 60.25 375.16796875 C58.35960701 377.49212448 56.47399789 379.81997518 54.59375 382.15234375 C53.81515625 383.11398437 53.0365625 384.075625 52.234375 385.06640625 C51.574375 385.88496094 50.914375 386.70351563 50.234375 387.546875 C48.02220025 390.12630533 45.66368829 392.50442121 43.234375 394.87890625 C41.10806902 376.16741364 61.4690705 353.59148432 72.234375 339.87890625 C74.99917941 336.45548407 77.84311666 333.10498567 80.7265625 329.78125 C83.09485129 327.04037995 85.39227563 324.25618039 87.671875 321.44140625 C92.08350555 316.02320046 96.62761142 310.72619775 101.18359375 305.4296875 C107.40959867 298.19074501 113.5952374 290.92024716 119.609375 283.50390625 C124.25056933 277.80375849 129.06711393 272.26469998 133.89453125 266.72265625 C137.11492237 263.02402628 140.30133495 259.29717057 143.484375 255.56640625 C147.6480517 250.69319675 151.88024043 245.89194873 156.1875 241.14453125 C159.24554785 237.75966913 162.24283926 234.32253903 165.234375 230.87890625 C163.98701933 230.22798035 162.73635668 229.58338956 161.484375 228.94140625 C160.78828125 228.58175781 160.0921875 228.22210938 159.375 227.8515625 C151.34667683 224.20365653 141.30195818 224.91632198 133.046875 227.44140625 C121.95249598 231.65520758 112.63239107 238.95544924 104.6171875 247.62890625 C103.234375 248.87890625 103.234375 248.87890625 100.609375 249.12890625 C98.234375 248.87890625 98.234375 248.87890625 97.234375 247.87890625 C96.8359375 245.64453125 96.8359375 245.64453125 97.234375 242.87890625 C98.98574641 240.89281495 100.60277719 239.31323688 102.609375 237.62890625 C103.1566626 237.14929443 103.7039502 236.66968262 104.26782227 236.17553711 C105.3871346 235.19534651 106.51125279 234.22061642 107.64013672 233.25146484 C109.84912725 231.34963563 112.01010905 229.39661137 114.171875 227.44140625 C114.97367188 226.72210938 115.77546875 226.0028125 116.6015625 225.26171875 C119.68750073 222.46880729 122.74328229 219.64457482 125.796875 216.81640625 C130.88491666 212.10417736 136.0242272 207.45629708 141.234375 202.87890625 C138.28388561 202.55890973 138.28388561 202.55890973 136.69140625 204.1640625 C136.14871094 204.75058594 135.60601562 205.33710938 135.046875 205.94140625 C132.69111377 208.39959188 130.32339288 210.73030601 127.734375 212.94140625 C123.62927866 216.47724118 119.68427994 220.17211709 115.734375 223.87890625 C111.1429997 228.18657027 106.53964794 232.45841426 101.75 236.546875 C100.17897406 237.88082635 100.17897406 237.88082635 98.69921875 239.54296875 C97.234375 240.87890625 97.234375 240.87890625 94.546875 241.06640625 C93.78375 241.00453125 93.020625 240.94265625 92.234375 240.87890625 C91.904375 239.88890625 91.574375 238.89890625 91.234375 237.87890625 C94.24267116 233.60906653 97.84706042 230.3634651 101.8046875 226.98828125 C104.79884689 224.38885027 107.70352163 221.70120353 110.609375 219.00390625 C118.70646903 211.50192938 126.90109225 204.11815468 135.234375 196.87890625 C134.904375 196.21890625 134.574375 195.55890625 134.234375 194.87890625 C133.821875 195.30300781 133.409375 195.72710937 132.984375 196.1640625 C129.31960547 199.88609405 125.54812181 203.39442499 121.59375 206.8046875 C118.63572794 209.40520027 115.74754225 212.07631272 112.859375 214.75390625 C107.36178482 219.84570868 101.83404452 224.89916385 96.234375 229.87890625 C95.63753906 230.42804688 95.04070312 230.9771875 94.42578125 231.54296875 C91.34190665 234.29615356 90.56808168 234.87890625 86.234375 234.87890625 C85.95241121 231.90482905 85.84991553 230.39522903 87.66796875 227.95361328 C88.65990234 227.05425049 88.65990234 227.05425049 89.671875 226.13671875 C90.40277344 225.46253906 91.13367188 224.78835938 91.88671875 224.09375 C92.66144531 223.40410156 93.43617188 222.71445312 94.234375 222.00390625 C94.97816406 221.32199219 95.72195312 220.64007813 96.48828125 219.9375 C100.71964505 216.07408088 105.03061369 212.30420666 109.35009766 208.54003906 C112.81951349 205.48148693 116.18766211 202.31426659 119.56445312 199.15429688 C122.00957085 196.88024891 124.4434028 194.71370221 127.06640625 192.640625 C129.31538315 191.06031168 129.31538315 191.06031168 130.234375 188.87890625 C124.29454484 193.10893671 118.98348178 197.76330437 113.734375 202.81640625 C108.94654444 207.39929324 104.11769997 211.88851203 99.10498047 216.22485352 C97.35369923 217.77339572 95.67134887 219.36596895 94.00390625 221.00390625 C93.51083984 221.48214844 93.01777344 221.96039063 92.50976562 222.453125 C91.51282361 223.42477744 90.52617328 224.40707566 89.54882812 225.3984375 C88.06640625 226.81640625 88.06640625 226.81640625 85.234375 228.87890625 C82.37109375 228.69140625 82.37109375 228.69140625 80.234375 227.87890625 C80.73721053 224.05606693 81.31784867 222.31801016 84.359375 219.94140625 C88.65134319 216.41641433 92.69451199 212.68616957 96.734375 208.87890625 C101.15387679 204.73269235 105.58908817 200.62848228 110.18359375 196.67578125 C114.94802299 192.50123372 119.57668613 188.17174283 124.234375 183.87890625 C121.22860217 183.55427506 121.22860217 183.55427506 119.47265625 185.3828125 C118.51939453 186.40181641 118.51939453 186.40181641 117.546875 187.44140625 C114.96171895 190.12491063 112.37483128 192.70237597 109.546875 195.12890625 C105.9548072 198.22188048 102.46216556 201.40901352 98.984375 204.62890625 C98.43313965 205.13752197 97.8819043 205.6461377 97.31396484 206.17016602 C94.48361657 208.78440395 91.66735541 211.41181733 88.87109375 214.0625 C88.33323242 214.56749023 87.79537109 215.07248047 87.24121094 215.59277344 C85.75394348 216.98934257 84.27325727 218.39291071 82.79296875 219.796875 C79.15468599 222.75749288 79.15468599 222.75749288 76.234375 222.87890625 C75.574375 222.21890625 74.914375 221.55890625 74.234375 220.87890625 C74.24159569 217.60793416 75.54692159 216.55316011 77.82421875 214.1796875 C78.93234584 213.17496994 80.04875149 212.17933165 81.171875 211.19140625 C81.760896 210.6610376 82.34991699 210.13066895 82.95678711 209.58422852 C84.70946468 208.0083155 86.47133592 206.44320647 88.234375 204.87890625 C89.9226651 203.35895006 91.61025227 201.83821243 93.296875 200.31640625 C94.08964844 199.60613281 94.88242188 198.89585937 95.69921875 198.1640625 C98.6035078 195.54617483 101.48207401 192.901365 104.359375 190.25390625 C108.922901 186.05700756 113.53764441 181.9263829 118.234375 177.87890625 C114.52463069 177.87890625 114.09996965 178.61644854 111.50390625 181.1328125 C110.78267578 181.82310547 110.06144531 182.51339844 109.31835938 183.22460938 C108.56876953 183.95615234 107.81917969 184.68769531 107.046875 185.44140625 C105.57556527 186.86077212 104.10291493 188.27874968 102.62890625 189.6953125 C101.89784668 190.39833496 101.16678711 191.10135742 100.41357422 191.82568359 C97.71537986 194.36789898 94.93326913 196.79972547 92.12963867 199.22436523 C88.61324151 202.29413511 85.22262863 205.50056561 81.81640625 208.69140625 C74.0916962 215.87890625 74.0916962 215.87890625 69.234375 215.87890625 C68.904375 214.88890625 68.574375 213.89890625 68.234375 212.87890625 C71.0355983 208.14378403 75.69445704 204.48027048 79.83984375 200.953125 C82.82444669 198.36776748 85.71570215 195.69013832 88.609375 193.00390625 C95.40737036 186.70612409 102.2060592 180.41034856 109.296875 174.44140625 C112.22466515 172.21501628 112.22466515 172.21501628 113.234375 169.87890625 C108.41408088 173.29693299 104.10448669 176.87189643 99.9921875 181.11328125 C98.25975911 182.85340932 96.46896467 184.46358 94.609375 186.06640625 C90.93000702 189.23852155 87.35922389 192.51459195 83.796875 195.81640625 C83.23726074 196.33122559 82.67764648 196.84604492 82.10107422 197.37646484 C79.5625729 199.71224119 77.04806377 202.06001937 74.57421875 204.46484375 C73.80207031 205.19960938 73.02992188 205.934375 72.234375 206.69140625 C71.574375 207.33722656 70.914375 207.98304688 70.234375 208.6484375 C68.234375 209.87890625 68.234375 209.87890625 65.484375 209.578125 C64.741875 209.34738281 63.999375 209.11664063 63.234375 208.87890625 C63.73639128 204.9750691 64.393164 203.25170903 67.484375 200.81640625 C71.31763478 197.66324095 74.97964991 194.38617417 78.609375 191.00390625 C82.50276866 187.39404471 86.40906139 183.80164013 90.359375 180.25390625 C91.14441406 179.54878906 91.92945313 178.84367188 92.73828125 178.1171875 C94.06291642 176.92936911 95.38777749 175.74180056 96.71435547 174.55615234 C98.24439917 173.18736916 99.77085654 171.81467408 101.296875 170.44140625 C102.21597656 169.61769531 103.13507813 168.79398438 104.08203125 167.9453125 C106.28081666 166.06559227 106.28081666 166.06559227 107.234375 163.87890625 C103.11448361 166.00127454 100.2825672 168.72742242 97.09765625 172.0078125 C95.32876128 173.78412422 93.50848256 175.43117469 91.609375 177.06640625 C87.9757304 180.20103969 84.44221883 183.43110533 80.921875 186.69140625 C80.36741699 187.20251953 79.81295898 187.71363281 79.24169922 188.24023438 C76.51756918 190.75335695 73.80859465 193.27934789 71.12890625 195.83984375 C70.17371094 196.73960937 69.21851563 197.639375 68.234375 198.56640625 C67.38875 199.37464844 66.543125 200.18289063 65.671875 201.015625 C63.09603921 202.98465332 61.42403487 203.5428528 58.234375 203.87890625 C57.37109375 201.73828125 57.37109375 201.73828125 57.234375 198.87890625 C59.12251436 196.6735102 60.84928962 194.97579075 63.046875 193.12890625 C63.64491943 192.60304932 64.24296387 192.07719238 64.85913086 191.53540039 C66.07415518 190.46834004 67.294939 189.40780101 68.52148438 188.35400391 C70.81453496 186.37928731 73.055298 184.34920892 75.296875 182.31640625 C76.0909375 181.60484375 76.885 180.89328125 77.703125 180.16015625 C80.58438914 177.56346141 83.44173938 174.94174595 86.296875 172.31640625 C91.22850393 167.78301289 96.20884291 163.30797368 101.234375 158.87890625 C98.28388561 158.55890973 98.28388561 158.55890973 96.69140625 160.1640625 C96.14871094 160.75058594 95.60601562 161.33710938 95.046875 161.94140625 C92.65134804 164.44151963 90.23688561 166.81108002 87.609375 169.06640625 C83.95292744 172.21973796 80.3996872 175.47178994 76.859375 178.75390625 C72.81287311 182.50094942 68.76004145 186.23971344 64.671875 189.94140625 C63.90746094 190.63363281 63.14304688 191.32585937 62.35546875 192.0390625 C58.40995155 195.4614172 58.40995155 195.4614172 56.234375 196.87890625 C53.484375 196.56640625 53.484375 196.56640625 51.234375 195.87890625 C51.8100031 192.49806583 52.81177121 190.96647188 55.33203125 188.671875 C56.28070068 187.79764893 56.28070068 187.79764893 57.24853516 186.90576172 C57.9244873 186.29877441 58.60043945 185.69178711 59.296875 185.06640625 C59.98571777 184.43621582 60.67456055 183.80602539 61.38427734 183.15673828 C65.25777005 179.62397371 69.16955307 176.13705727 73.14453125 172.71875 C76.65899637 169.62470688 80.07159157 166.41962007 83.50146484 163.23242188 C86.44376539 160.50579187 89.41066957 157.8332838 92.484375 155.25390625 C95.24559295 153.17698317 95.24559295 153.17698317 96.234375 150.87890625 C90.01659657 155.53928183 84.26884828 160.4934315 78.671875 165.87890625 C73.89451476 170.45045903 69.07618147 174.93093359 64.07592773 179.25830078 C62.41650577 180.71862731 60.81104814 182.21326533 59.22265625 183.75 C58.33964844 184.59691406 57.45664063 185.44382812 56.546875 186.31640625 C55.65613281 187.18136719 54.76539063 188.04632813 53.84765625 188.9375 C50.96466517 191.07927364 49.73257205 191.33902947 46.234375 190.87890625 C46.69417029 186.18063441 48.43246375 184.21935883 51.796875 181.00390625 C52.70953125 180.12734375 53.6221875 179.25078125 54.5625 178.34765625 C57.32635065 175.7939229 60.12277865 173.29545544 62.98046875 170.84765625 C66.48535764 167.78619351 69.88133405 164.60830073 73.29150391 161.44213867 C77.57552485 157.47001245 81.920227 153.57562879 86.30859375 149.71875 C88.42264676 147.8331394 88.42264676 147.8331394 90.234375 144.87890625 C85.91951634 147.50991763 82.57642332 150.42209994 79.0625 154.04296875 C77.30576272 155.80721345 75.49530645 157.4419695 73.609375 159.06640625 C69.95288578 162.21977389 66.40045838 165.47257761 62.859375 168.75390625 C62.30233887 169.26759766 61.74530273 169.78128906 61.17138672 170.31054688 C58.54838649 172.72990039 55.93893675 175.15953256 53.3515625 177.6171875 C52.48789063 178.42542969 51.62421875 179.23367187 50.734375 180.06640625 C49.60515625 181.13955078 49.60515625 181.13955078 48.453125 182.234375 C46.00325043 184.05021513 44.23498697 184.52496082 41.234375 184.87890625 C40.40234375 182.70703125 40.40234375 182.70703125 40.234375 179.87890625 C41.96458285 177.82874973 43.50651425 176.31505455 45.546875 174.62890625 C46.09794922 174.15001953 46.64902344 173.67113281 47.21679688 173.17773438 C48.34555962 172.19739026 49.47987188 171.22339947 50.61962891 170.25585938 C52.86500852 168.34114195 55.0487315 166.361317 57.234375 164.37890625 C58.03875 163.65703125 58.843125 162.93515625 59.671875 162.19140625 C63.04873869 159.14399268 66.39766826 156.06650655 69.74707031 152.98901367 C74.54527406 148.58442475 79.38346368 144.22540865 84.234375 139.87890625 C81.22860217 139.55427506 81.22860217 139.55427506 79.47265625 141.3828125 C78.51939453 142.40181641 78.51939453 142.40181641 77.546875 143.44140625 C74.96171895 146.12491063 72.37483128 148.70237597 69.546875 151.12890625 C65.90909257 154.25925734 62.37813209 157.49143859 58.859375 160.75390625 C54.81289497 164.50097253 50.76004101 168.23971384 46.671875 171.94140625 C45.90746094 172.63363281 45.14304687 173.32585937 44.35546875 174.0390625 C42.37703361 175.7551637 40.35107808 177.3381768 38.234375 178.87890625 C36.254375 177.88890625 36.254375 177.88890625 34.234375 176.87890625 C34.60848768 172.35748729 37.85378196 170.11975344 41.046875 167.31640625 C42.23700818 166.24612601 43.4271117 165.17581279 44.6171875 164.10546875 C45.52452637 163.29770996 45.52452637 163.29770996 46.45019531 162.47363281 C48.63013827 160.5251671 50.78199286 158.54769027 52.93139648 156.56567383 C61.26085362 148.88565512 69.68125964 141.30912657 78.234375 133.87890625 C74.91856322 133.87890625 73.03212249 136.63898968 70.734375 138.81640625 C69.64101274 139.8363533 68.54725735 140.85587909 67.453125 141.875 C66.90785156 142.38530762 66.36257812 142.89561523 65.80078125 143.42138672 C63.63668462 145.43504895 61.43757463 147.4081871 59.234375 149.37890625 C56.04558003 152.24012036 52.87433242 155.11873459 49.72070312 158.01855469 C48.19579664 159.41943031 46.66634918 160.81522413 45.13671875 162.2109375 C43.27849327 163.91910439 41.4356732 165.64427921 39.61328125 167.390625 C38.82824219 168.12925781 38.04320312 168.86789063 37.234375 169.62890625 C36.55375 170.28375 35.873125 170.93859375 35.171875 171.61328125 C33.234375 172.87890625 33.234375 172.87890625 30.984375 172.58203125 C30.118125 172.23398437 30.118125 172.23398437 29.234375 171.87890625 C29.72431859 167.44608326 31.09386017 165.54759444 34.296875 162.50390625 C35.11800781 161.71886719 35.93914062 160.93382812 36.78515625 160.125 C39.468017 157.66464126 42.18352461 155.25398896 44.9453125 152.8828125 C48.45995032 149.80600499 51.87062997 146.61838319 55.29345703 143.44018555 C59.54245781 139.50016923 63.85434054 135.63747468 68.2109375 131.81640625 C70.15276087 129.95705414 71.6521375 128.04330365 73.234375 125.87890625 C67.29454484 130.10893671 61.98348178 134.76330437 56.734375 139.81640625 C51.94654444 144.39929324 47.11769997 148.88851203 42.10498047 153.22485352 C40.35369923 154.77339572 38.67134887 156.36596895 37.00390625 158.00390625 C36.51083984 158.48214844 36.01777344 158.96039063 35.50976562 159.453125 C34.51282361 160.42477744 33.52617328 161.40707566 32.54882812 162.3984375 C31.06640625 163.81640625 31.06640625 163.81640625 28.234375 165.87890625 C25.37109375 165.69140625 25.37109375 165.69140625 23.234375 164.87890625 C23.73639128 160.9750691 24.393164 159.25170903 27.484375 156.81640625 C31.31763478 153.66324095 34.97964991 150.38617417 38.609375 147.00390625 C43.28265376 142.67095388 47.98878509 138.37885938 52.734375 134.125 C57.25388829 130.06449978 61.7422424 125.96965057 66.234375 121.87890625 C65.904375 121.21890625 65.574375 120.55890625 65.234375 119.87890625 C64.6053125 120.51957031 63.97625 121.16023438 63.328125 121.8203125 C58.84264917 126.35307497 54.33090934 130.76212734 49.48828125 134.91015625 C46.55915865 137.46869661 43.71092883 140.10953595 40.859375 142.75390625 C36.79114655 146.52080629 32.7173367 150.28031523 28.609375 154.00390625 C27.83335937 154.70773438 27.05734375 155.4115625 26.2578125 156.13671875 C24.234375 157.87890625 24.234375 157.87890625 21.234375 159.87890625 C19.046875 159.50390625 19.046875 159.50390625 17.234375 158.87890625 C17.49890855 154.48604615 19.22563821 152.52174664 22.43579102 149.63061523 C23.00869873 149.13505127 23.58160645 148.6394873 24.171875 148.12890625 C24.760896 147.60304932 25.34991699 147.07719238 25.95678711 146.53540039 C27.15155582 145.47019857 28.3505077 144.40966917 29.55371094 143.35400391 C31.82150345 141.36359101 34.05845125 139.33973716 36.296875 137.31640625 C37.08964844 136.60613281 37.88242188 135.89585937 38.69921875 135.1640625 C41.6035078 132.54617483 44.48207401 129.901365 47.359375 127.25390625 C51.922901 123.05700756 56.53764441 118.9263829 61.234375 114.87890625 C57.76785377 114.87890625 55.63706139 118.0289336 53.234375 120.31640625 C52.04866119 121.42890161 50.86245908 122.54087675 49.67578125 123.65234375 C49.08941895 124.20374023 48.50305664 124.75513672 47.89892578 125.32324219 C45.68382615 127.3934409 43.43180362 129.42033187 41.171875 131.44140625 C37.98573129 134.29598379 34.81961585 137.1701399 31.67211914 140.06713867 C30.14157799 141.47429922 28.60633403 142.87617047 27.0703125 144.27734375 C25.3106951 145.89153822 23.56333728 147.5193429 21.8359375 149.16796875 C21.14242187 149.81507813 20.44890625 150.4621875 19.734375 151.12890625 C19.1465625 151.6909375 18.55875 152.25296875 17.953125 152.83203125 C16.234375 153.87890625 16.234375 153.87890625 14.015625 153.55078125 C13.4278125 153.3290625 12.84 153.10734375 12.234375 152.87890625 C12.74314559 148.73708368 13.77588307 146.85345245 16.796875 144.00390625 C17.52648437 143.31039062 18.25609375 142.616875 19.0078125 141.90234375 C21.61103728 139.53660614 24.24388596 137.21232314 26.91015625 134.91796875 C30.43384326 131.82659965 33.85833153 128.62978451 37.29321289 125.44042969 C41.54227578 121.50031076 45.85425404 117.63755054 50.2109375 113.81640625 C52.15276087 111.95705414 53.6521375 110.04330365 55.234375 107.87890625 C49.29454484 112.10893671 43.98348178 116.76330437 38.734375 121.81640625 C33.93561318 126.40975659 29.09737299 130.91347158 24.07373047 135.26049805 C22.41495894 136.72001443 20.81030887 138.21397176 19.22265625 139.75 C18.33964844 140.59691406 17.45664063 141.44382813 16.546875 142.31640625 C15.65613281 143.18136719 14.76539062 144.04632813 13.84765625 144.9375 C10.96466517 147.07927364 9.73257205 147.33902947 6.234375 146.87890625 C5.84447755 142.36068286 5.84447755 142.36068286 7.52734375 140.28125 C8.15253906 139.79785156 8.77773437 139.31445312 9.421875 138.81640625 C13.243156 135.70950935 16.88363012 132.48511655 20.484375 129.12890625 C21.61038101 128.08561787 22.73668576 127.04265181 23.86328125 126 C24.42418457 125.48034668 24.98508789 124.96069336 25.56298828 124.42529297 C28.17646024 122.00727786 30.79797863 119.59809971 33.421875 117.19140625 C34.39125 116.30195313 35.360625 115.4125 36.359375 114.49609375 C39.99984672 111.18207738 43.67899377 107.91259974 47.37109375 104.65625 C49.31211229 103.00553774 49.31211229 103.00553774 50.234375 100.87890625 C45.77809238 103.10704756 42.75019948 106.26601571 39.3203125 109.78515625 C36.83981404 112.27494497 34.22112424 114.54870749 31.55859375 116.83984375 C28.61024167 119.42646524 25.73597568 122.0880425 22.859375 124.75390625 C22.3022583 125.26767822 21.7451416 125.7814502 21.17114258 126.31079102 C18.54821189 128.73005077 15.93885358 131.15961155 13.3515625 133.6171875 C12.48789063 134.42542969 11.62421875 135.23367187 10.734375 136.06640625 C9.60515625 137.13955078 9.60515625 137.13955078 8.453125 138.234375 C6.00325043 140.05021513 4.23498697 140.52496082 1.234375 140.87890625 C0.37109375 138.73828125 0.37109375 138.73828125 0.234375 135.87890625 C2.12251436 133.6735102 3.84928962 131.97579075 6.046875 130.12890625 C6.64491943 129.60304932 7.24296387 129.07719238 7.85913086 128.53540039 C9.07415518 127.46834004 10.294939 126.40780101 11.52148438 125.35400391 C13.81453496 123.37928731 16.055298 121.34920892 18.296875 119.31640625 C19.0909375 118.60484375 19.885 117.89328125 20.703125 117.16015625 C23.58438914 114.56346141 26.44173938 111.94174595 29.296875 109.31640625 C34.22850393 104.78301289 39.20884291 100.30797368 44.234375 95.87890625 C41.52673576 95.87890625 40.97604699 96.84392081 39.0390625 98.6953125 C38.40983887 99.29102051 37.78061523 99.88672852 37.13232422 100.50048828 C36.13096436 101.46124268 36.13096436 101.46124268 35.109375 102.44140625 C33.73522195 103.74308219 32.36023169 105.04387492 30.984375 106.34375 C30.32824219 106.96491699 29.67210937 107.58608398 28.99609375 108.22607422 C27.0717374 110.03149169 25.1100404 111.78350648 23.109375 113.50390625 C19.5498361 116.56495392 16.11326011 119.74918652 12.671875 122.94140625 C11.01392875 124.47185457 9.35496354 126.00118583 7.6953125 127.52978516 C6.45372494 128.67634479 5.21836965 129.82964737 3.984375 130.984375 C-0.30793498 134.87890625 -0.30793498 134.87890625 -4.765625 134.87890625 C-5.51171875 133.1484375 -5.51171875 133.1484375 -5.765625 130.87890625 C-4.17578125 128.765625 -4.17578125 128.765625 -1.828125 126.56640625 C-0.98894531 125.77234375 -0.14976563 124.97828125 0.71484375 124.16015625 C3.4338464 121.69829958 6.17098812 119.26520887 8.953125 116.875 C11.8453781 114.34427854 14.66480318 111.74004977 17.484375 109.12890625 C18.03496582 108.62020996 18.58555664 108.11151367 19.15283203 107.58740234 C21.98820839 104.96589249 24.81530254 102.33601515 27.6328125 99.6953125 C28.70828896 98.69396276 29.7838081 97.69265885 30.859375 96.69140625 C31.82101563 95.79035156 32.78265625 94.88929688 33.7734375 93.9609375 C36.234375 91.87890625 36.234375 91.87890625 39.234375 90.87890625 C38.574375 90.21890625 37.914375 89.55890625 37.234375 88.87890625 C36.01545548 89.99624914 34.79653924 91.1135956 33.57763672 92.23095703 C32.50119319 93.21766944 31.42469438 94.20432155 30.34814453 95.19091797 C27.6032242 97.70663069 24.859046 100.22313777 22.1171875 102.7421875 C19.16000752 105.4585501 16.19786569 108.16942904 13.234375 110.87890625 C11.95240234 112.05453125 11.95240234 112.05453125 10.64453125 113.25390625 C6.25923182 117.2443209 1.81366827 121.1628537 -2.703125 125.00390625 C-3.59902344 125.76960938 -4.49492188 126.5353125 -5.41796875 127.32421875 C-6.19269531 127.83726562 -6.96742187 128.3503125 -7.765625 128.87890625 C-8.755625 128.54890625 -9.745625 128.21890625 -10.765625 127.87890625 C-10.30582971 123.18063441 -8.56753625 121.21935883 -5.203125 118.00390625 C-4.29046875 117.12734375 -3.3778125 116.25078125 -2.4375 115.34765625 C0.32635065 112.7939229 3.12277865 110.29545544 5.98046875 107.84765625 C9.48535764 104.78619351 12.88133405 101.60830073 16.29150391 98.44213867 C20.57552485 94.47001245 24.920227 90.57562879 29.30859375 86.71875 C31.42264676 84.8331394 31.42264676 84.8331394 33.234375 81.87890625 C28.91951634 84.50991763 25.57642332 87.42209994 22.0625 91.04296875 C20.30576272 92.80721345 18.49530645 94.4419695 16.609375 96.06640625 C12.97570251 99.20106375 9.44274581 102.43164527 5.921875 105.69140625 C5.36741699 106.20106934 4.81295898 106.71073242 4.24169922 107.23583984 C1.50084506 109.75882512 -1.21100753 112.30199491 -3.87109375 114.91015625 C-4.35989014 115.3796167 -4.84868652 115.84907715 -5.35229492 116.33276367 C-6.68696396 117.61578892 -8.00800185 118.91295056 -9.328125 120.2109375 C-11.765625 121.87890625 -11.765625 121.87890625 -14.578125 121.640625 C-15.3 121.38925781 -16.021875 121.13789063 -16.765625 120.87890625 C-16.29849593 116.33429463 -14.91140721 114.6551127 -11.453125 111.75390625 C-10.54949219 110.97789062 -9.64585938 110.201875 -8.71484375 109.40234375 C-7.74160156 108.56960937 -6.76835938 107.736875 -5.765625 106.87890625 C-3.74987389 105.06254426 -1.75777802 103.22107773 0.234375 101.37890625 C6.45456932 95.66128381 12.71901277 89.99335095 19.04296875 84.390625 C19.95175781 83.58238281 20.86054688 82.77414063 21.796875 81.94140625 C22.62316406 81.21050781 23.44945312 80.47960937 24.30078125 79.7265625 C26.30447689 78.02012043 26.30447689 78.02012043 27.234375 75.87890625 C21.52694222 80.43040328 15.96714478 84.97096876 10.88671875 90.21875 C8.57324953 92.5431576 6.09312588 94.64973801 3.609375 96.7890625 C0.00044785 99.96468096 -3.50951976 103.24638754 -7.02197266 106.52807617 C-8.59337912 107.98957557 -10.17514487 109.43819675 -11.765625 110.87890625 C-12.30429199 111.36931396 -12.84295898 111.85972168 -13.39794922 112.36499023 C-14.80213274 113.59781064 -16.27982722 114.74577676 -17.765625 115.87890625 C-20.640625 115.69140625 -20.640625 115.69140625 -22.765625 114.87890625 C-22.18571087 111.50953177 -21.16212821 109.91338198 -18.703125 107.56640625 C-18.06246094 106.9528125 -17.42179687 106.33921875 -16.76171875 105.70703125 C-14.30257843 103.45482446 -11.79210754 101.26988047 -9.265625 99.09375 C-5.87130604 96.08659555 -2.57235523 92.98175252 0.734375 89.87890625 C7.3828975 83.64765162 14.04813389 77.49315712 21.234375 71.87890625 C20.904375 71.21890625 20.574375 70.55890625 20.234375 69.87890625 C19.43515625 70.61753906 18.6359375 71.35617188 17.8125 72.1171875 C-3.88297595 92.16094341 -3.88297595 92.16094341 -12.37890625 99.7265625 C-14.02373587 101.20987039 -15.64504036 102.71954424 -17.24609375 104.25 C-18.03628906 104.99378906 -18.82648438 105.73757812 -19.640625 106.50390625 C-20.33929688 107.17679687 -21.03796875 107.8496875 -21.7578125 108.54296875 C-23.765625 109.87890625 -23.765625 109.87890625 -26.0234375 109.58984375 C-26.59835938 109.35523438 -27.17328125 109.120625 -27.765625 108.87890625 C-27.27568141 104.44608326 -25.90613983 102.54759444 -22.703125 99.50390625 C-21.88199219 98.71886719 -21.06085938 97.93382812 -20.21484375 97.125 C-17.531983 94.66464126 -14.81647539 92.25398896 -12.0546875 89.8828125 C-8.54082636 86.80668492 -5.13096944 83.61970579 -1.70874023 80.44238281 C2.57534257 76.47015374 6.92014063 72.5757047 11.30859375 68.71875 C13.42264676 66.8331394 13.42264676 66.8331394 15.234375 63.87890625 C10.91951634 66.50991763 7.57642332 69.42209994 4.0625 73.04296875 C2.30576272 74.80721345 0.49530645 76.4419695 -1.390625 78.06640625 C-5.04712835 81.21978607 -8.59927825 84.47284695 -12.140625 87.75390625 C-12.9761792 88.52335571 -12.9761792 88.52335571 -13.82861328 89.30834961 C-16.45952297 91.73232092 -19.07439395 94.16798813 -21.6484375 96.65234375 C-22.51210937 97.46960938 -23.37578125 98.286875 -24.265625 99.12890625 C-25.0184375 99.8559375 -25.77125 100.58296875 -26.546875 101.33203125 C-29.17697659 103.16569363 -30.62607123 103.21054925 -33.765625 102.87890625 C-34.03125 100.63671875 -34.03125 100.63671875 -33.765625 97.87890625 C-32 95.80859375 -32 95.80859375 -29.515625 93.75390625 C-28.60296875 92.97789062 -27.6903125 92.201875 -26.75 91.40234375 C-25.76515625 90.56960937 -24.7803125 89.736875 -23.765625 88.87890625 C-21.74714184 87.06544595 -19.75649061 85.222586 -17.765625 83.37890625 C-14.09595558 80.00477283 -10.41117333 76.64836093 -6.703125 73.31640625 C-5.9090625 72.60226563 -5.115 71.888125 -4.296875 71.15234375 C-2.95933379 69.95103359 -1.62149902 68.75004624 -0.28125 67.55175781 C1.24727663 66.18438267 2.77228367 64.81316629 4.296875 63.44140625 C5.21597656 62.61769531 6.13507813 61.79398438 7.08203125 60.9453125 C9.28081666 59.06559227 9.28081666 59.06559227 10.234375 56.87890625 C4.21965341 61.6553028 -1.53436917 66.48865328 -6.890625 71.99609375 C-9.29162956 74.4071025 -11.84215297 76.60400369 -14.421875 78.8203125 C-18.05377137 82.01032814 -21.57990908 85.31435458 -25.11010742 88.61621094 C-31.48392155 94.54687383 -31.48392155 94.54687383 -34.765625 96.87890625 C-37.578125 96.62890625 -37.578125 96.62890625 -39.765625 95.87890625 C-39.18571087 92.50953177 -38.16212821 90.91338198 -35.703125 88.56640625 C-35.06503906 87.95539063 -34.42695312 87.344375 -33.76953125 86.71484375 C-31.25942332 84.41513473 -28.70293009 82.1763399 -26.125 79.953125 C-23.16697736 77.35261172 -20.27880785 74.68148371 -17.390625 72.00390625 C-2.33043206 58.05678224 -2.33043206 58.05678224 4.234375 52.87890625 C3.904375 52.21890625 3.574375 51.55890625 3.234375 50.87890625 C2.821875 51.2663501 2.409375 51.65379395 1.984375 52.05297852 C-11.74381594 64.93656396 -11.74381594 64.93656396 -17.6796875 70.04296875 C-20.58928366 72.60384926 -23.42332978 75.24379887 -26.265625 77.87890625 C-27.92910062 79.413872 -29.59320043 80.94815891 -31.25732422 82.48242188 C-32.59077172 83.71701555 -33.91522408 84.96130917 -35.23828125 86.20703125 C-35.92792969 86.84125 -36.61757812 87.47546875 -37.328125 88.12890625 C-37.90691406 88.6703125 -38.48570313 89.21171875 -39.08203125 89.76953125 C-40.765625 90.87890625 -40.765625 90.87890625 -44.765625 90.87890625 C-45.54296875 89.1796875 -45.54296875 89.1796875 -45.765625 86.87890625 C-43.95703125 84.546875 -43.95703125 84.546875 -41.328125 82.06640625 C-39.93207031 80.73802734 -39.93207031 80.73802734 -38.5078125 79.3828125 C-35.71140322 76.82939605 -32.89539318 74.31102081 -30.01953125 71.84765625 C-27.0904004 69.28910868 -24.24237445 66.64807602 -21.390625 64.00390625 C-20.26965339 62.96731582 -19.14856036 61.93085668 -18.02734375 60.89453125 C-15.96634775 58.98945988 -13.90657217 57.08310363 -11.84765625 55.17578125 C-10.97496094 54.3765625 -10.10226563 53.57734375 -9.203125 52.75390625 C-8.43871094 52.05007812 -7.67429688 51.34625 -6.88671875 50.62109375 C-4.90994567 48.99744588 -3.09787467 47.90488456 -0.765625 46.87890625 C-1.425625 46.21890625 -2.085625 45.55890625 -2.765625 44.87890625 C-3.51585938 45.56855469 -4.26609375 46.25820312 -5.0390625 46.96875 C-10.73417331 52.19925967 -16.44793332 57.4062545 -22.20703125 62.56640625 C-24.54790624 64.68212837 -26.86522144 66.82141522 -29.17797852 68.96777344 C-33.65358514 73.10880214 -38.18106436 77.18074391 -42.828125 81.12890625 C-43.70597656 81.8765625 -44.58382812 82.62421875 -45.48828125 83.39453125 C-46.23980469 83.884375 -46.99132812 84.37421875 -47.765625 84.87890625 C-49.250625 84.38390625 -49.250625 84.38390625 -50.765625 83.87890625 C-51.15552245 79.36068286 -51.15552245 79.36068286 -49.47265625 77.28125 C-48.53486328 76.55615234 -48.53486328 76.55615234 -47.578125 75.81640625 C-43.70956236 72.67362704 -40.0329267 69.40239413 -36.390625 66.00390625 C-32.51918537 62.41352092 -28.63385836 58.84203988 -24.703125 55.31640625 C-20.86180577 51.8668005 -17.0243599 48.41324517 -13.203125 44.94140625 C-12.67775146 44.46823975 -12.15237793 43.99507324 -11.61108398 43.50756836 C-8.80666889 40.99792443 -8.80666889 40.99792443 -6.765625 37.87890625 C-13.08695138 42.87688954 -19.03932746 48.00581742 -24.66796875 53.7734375 C-27.15762989 56.27237112 -29.78020811 58.56104892 -32.45703125 60.85546875 C-36.07991051 64.03085193 -39.59218494 67.32581867 -43.11035156 70.61645508 C-46.22714747 73.51651701 -49.40088084 76.26327025 -52.765625 78.87890625 C-54.085625 78.21890625 -55.405625 77.55890625 -56.765625 76.87890625 C-56.1952994 73.25686467 -54.89872909 71.69423382 -52.23046875 69.234375 C-51.50279297 68.55697266 -50.77511719 67.87957031 -50.02539062 67.18164062 C-49.25904297 66.48361328 -48.49269531 65.78558594 -47.703125 65.06640625 C-46.96384766 64.37998047 -46.22457031 63.69355469 -45.46289062 62.98632812 C-41.25521621 59.09524164 -36.97547543 55.29506778 -32.65209961 51.53344727 C-29.74977654 48.9879518 -26.91068051 46.37651536 -24.078125 43.75390625 C-23.53607422 43.25503906 -22.99402344 42.75617188 -22.43554688 42.2421875 C-19.13512568 39.19258239 -15.92257973 36.07686039 -12.765625 32.87890625 C-16.63338815 34.48283647 -19.3921608 37.10523006 -22.390625 39.94140625 C-23.4657626 40.94311982 -24.54128885 41.9444164 -25.6171875 42.9453125 C-26.14989258 43.44305176 -26.68259766 43.94079102 -27.23144531 44.45361328 C-29.38594522 46.45519992 -31.57416181 48.41793676 -33.765625 50.37890625 C-36.99060064 53.27151725 -40.19451226 56.18488457 -43.38061523 59.12011719 C-44.91631262 60.53254869 -46.45757668 61.9386709 -48 63.34375 C-49.65281996 64.85883497 -51.29308228 66.38807578 -52.90625 67.9453125 C-54.703125 69.62890625 -54.703125 69.62890625 -57.765625 71.87890625 C-60.703125 71.75390625 -60.703125 71.75390625 -62.765625 70.87890625 C-62.19230154 67.23709102 -60.83433472 65.5946332 -58.203125 63.06640625 C-57.10871094 62.01259766 -57.10871094 62.01259766 -55.9921875 60.9375 C-53.40640396 58.54678434 -50.77184496 56.22528606 -48.1015625 53.9296875 C-45.08363276 51.28016724 -42.14555386 48.54919854 -39.203125 45.81640625 C-34.80461839 41.734875 -30.36774158 37.73184106 -25.765625 33.87890625 C-26.50026978 34.43070557 -26.50026978 34.43070557 -27.24975586 34.99365234 C-30.66757007 37.55915705 -34.08790933 40.12095488 -37.51953125 42.66796875 C-38.78928682 43.61297992 -40.05881188 44.55830088 -41.328125 45.50390625 C-42.0085083 46.00954102 -42.6888916 46.51517578 -43.38989258 47.03613281 C-46.98080626 49.72341945 -50.50807851 52.46114891 -53.9609375 55.32421875 C-54.9672522 56.15445557 -54.9672522 56.15445557 -55.99389648 57.00146484 C-57.27314543 58.06407836 -58.54396642 59.13694418 -59.80493164 60.22119141 C-62.46498193 62.42759258 -64.20438702 63.81596367 -67.69140625 64.20703125 C-68.37589844 64.09875 -69.06039062 63.99046875 -69.765625 63.87890625 C-70.45629883 61.59472656 -70.45629883 61.59472656 -70.765625 58.87890625 C-69.5690918 57.07714844 -69.5690918 57.07714844 -67.71484375 55.42578125 C-67.04098633 54.8112207 -66.36712891 54.19666016 -65.67285156 53.56347656 C-64.9403418 52.92506836 -64.20783203 52.28666016 -63.453125 51.62890625 C-62.71416992 50.96213867 -61.97521484 50.29537109 -61.21386719 49.60839844 C-59.07669411 47.68428852 -56.92279313 45.7805305 -54.765625 43.87890625 C-53.01444015 42.29688347 -51.26419584 40.71381775 -49.515625 39.12890625 C-48.74734375 38.443125 -47.9790625 37.75734375 -47.1875 37.05078125 C-44.360098 34.5152401 -41.56156945 31.94898709 -38.765625 29.37890625 C-34.2706042 25.24977586 -29.75366972 21.14648884 -25.20703125 17.07421875 C-23.51953219 15.5568196 -21.84034056 14.03014909 -20.16796875 12.49609375 C-17.72382572 10.26208066 -15.25784746 8.05907378 -12.765625 5.87890625 C-12.13785156 5.32589844 -11.51007813 4.77289063 -10.86328125 4.203125 C-7.58103397 1.56095315 -4.31602638 -0.25929616 0 0 Z " fill="#221E1F" transform="translate(112.765625,71.12109375)"/>
<path d="M0 0 C8.76166273 6.96510728 14.83865012 16.5539627 16.75 27.68359375 C18.46056552 43.53305243 14.70686294 59.91303707 4.73535156 72.61035156 C1.67543525 76.26678585 -1.6076439 79.65208524 -5 83 C-5.66902344 83.66773438 -6.33804688 84.33546875 -7.02734375 85.0234375 C-11.76857588 89.45393348 -17.14731542 92.57738938 -22.6953125 95.90234375 C-30.71177569 100.99080797 -37.67447687 107.50934997 -44.671875 113.890625 C-46.73153033 115.75675567 -48.82388895 117.57069788 -50.9375 119.375 C-75.49376032 140.92336498 -92.49594716 168.23089344 -103 199 C-102.01 199 -101.02 199 -100 199 C-98.43313223 194.41722184 -96.94972076 189.84685461 -95.6953125 185.16796875 C-92.95898676 176.00264113 -90.10187362 169.79263113 -81.64208984 164.82910156 C-77.97620091 162.90268243 -74.27343075 161.0684196 -70.53808594 159.28076172 C-46.92866802 147.36704429 -24.2119625 123.75313894 -10 101.9375 C-6.16993689 96.07886591 -1.89982588 90.99025891 3 86 C3.74765625 85.22785156 4.4953125 84.45570313 5.265625 83.66015625 C18.00957875 71.31708846 33.33968722 65.44477826 50.94238281 65.58203125 C62.94419215 65.96319232 72.00873441 70.01424061 81 78 C83.33504211 80.50495162 85.22392694 83.07639921 87 86 C87.37640625 86.60199219 87.7528125 87.20398438 88.140625 87.82421875 C95.77041363 101.40410373 95.63047646 117.77300257 91.69824219 132.43188477 C90.22719126 137.55343814 88.50740049 142.3038653 86 147 C85.31357422 148.36125 85.31357422 148.36125 84.61328125 149.75 C75.10137322 167.43800331 60.05349003 179.66657734 41 186 C28.85291175 189.53979566 15.84912257 189.11676572 4.3046875 183.74609375 C-7.25162782 177.26112781 -14.95409318 167.59770336 -18.63769531 154.78125 C-19.12026858 152.86109859 -19.56378361 150.93121041 -20 149 C-20.45624756 149.35602295 -20.91249512 149.7120459 -21.38256836 150.07885742 C-31.90023506 158.28229635 -42.45902388 166.42852827 -53.06298828 174.52001953 C-58.05284325 178.33253539 -63.02470368 182.1685218 -68 186 C-70.16644652 187.66695292 -72.33323695 189.33345856 -74.5 191 C-75.03367187 191.41056641 -75.56734375 191.82113281 -76.1171875 192.24414062 C-83.05600665 197.58233845 -83.05600665 197.58233845 -86.08105469 199.90136719 C-87.18489959 200.75201888 -88.28460456 201.60807267 -89.37988281 202.46972656 C-91.78409647 204.35379074 -94.16965487 206.10317494 -96.78125 207.69140625 C-99.3537906 209.31552603 -101.16085953 210.56874601 -103 213 C-103.71954184 216.64850037 -103.87785457 219.98005121 -103.8046875 223.6953125 C-104.1115669 228.88771187 -106.57055992 231.84798049 -110.25 235.3125 C-112.67505361 237.66208514 -114.94391561 240.04784805 -117.125 242.625 C-120.52724666 246.55544934 -124.1096662 250.29137856 -127.75 254 C-128.60102295 254.88292725 -128.60102295 254.88292725 -129.46923828 255.78369141 C-130.9219577 257.24852043 -132.45622743 258.63146648 -134 260 C-134.99 260 -135.98 260 -137 260 C-138.83984375 258.05078125 -138.83984375 258.05078125 -140.9375 255.3125 C-144.50259636 250.79942533 -148.19767883 246.51336287 -152.125 242.3125 C-153.14588918 241.21619784 -154.1667239 240.11984495 -155.1875 239.0234375 C-155.66832031 238.50749023 -156.14914062 237.99154297 -156.64453125 237.45996094 C-158.49177828 235.47031086 -160.31754183 233.46335937 -162.125 231.4375 C-162.64320313 230.85871094 -163.16140625 230.27992188 -163.6953125 229.68359375 C-165.09224702 227.88096268 -166.00763804 226.04724114 -167 224 C-166.62302979 223.54262451 -166.24605957 223.08524902 -165.85766602 222.61401367 C-158.55674699 213.75488358 -151.26279339 204.89042505 -144 196 C-142.50014304 194.16654964 -141.0001406 192.33321829 -139.5 190.5 C-138.7575 189.5925 -138.015 188.685 -137.25 187.75 C-130.5 179.5 -130.5 179.5 -128.23046875 176.7265625 C-126.79500065 174.97182216 -125.36006204 173.21664845 -123.92578125 171.4609375 C-118.68794837 165.0516115 -113.42822781 158.66056804 -108.16455078 152.27246094 C-103.43013237 146.52544938 -98.71073971 140.76644221 -94 135 C-92.50014304 133.16654964 -91.0001406 131.33321829 -89.5 129.5 C-88.76007813 128.59507812 -88.02015625 127.69015625 -87.2578125 126.7578125 C-85.73403112 124.89658472 -84.20793284 123.0372517 -82.6796875 121.1796875 C-78.02933911 115.52044997 -73.46122331 109.80963164 -69 104 C-70.21623047 103.58041016 -70.21623047 103.58041016 -71.45703125 103.15234375 C-85.30217302 98.13972548 -95.16454157 92.12198208 -102.3125 79 C-107.88228902 66.80861631 -107.51100722 52.46622942 -103 40 C-98.54982505 28.82241214 -92.64024136 20.30841525 -84 12 C-83.34386719 11.33613281 -82.68773437 10.67226563 -82.01171875 9.98828125 C-61.04270139 -9.99290232 -24.5697657 -16.82254228 0 0 Z M-74 28 C-74.85851562 28.84498047 -74.85851562 28.84498047 -75.734375 29.70703125 C-84.20207076 38.67667804 -87.46089086 49.35371059 -87.3359375 61.38671875 C-86.65282074 68.73419552 -83.48602728 73.92114281 -78.1875 78.9375 C-69.90227892 85.59386855 -60.28992088 86.65001884 -50 86 C-36.05590423 84.01837492 -24.74705953 76.90655687 -15 67 C-14.41476562 66.41347656 -13.82953125 65.82695313 -13.2265625 65.22265625 C-5.20869011 56.57393603 -1.46462793 45.67817712 -1.68359375 34 C-2.3313633 27.85818502 -5.11977233 22.0347547 -9.25 17.4140625 C-29.83364226 0.78174442 -57.35553748 10.83154514 -74 28 Z M14 101 C13.43667969 101.54140625 12.87335938 102.0828125 12.29296875 102.640625 C3.0948991 112.25127298 -2.52997473 127.4467987 -2.2734375 140.6328125 C-1.20488109 149.88345801 1.82566668 157.90631939 9 164 C16.53590924 169.39180117 23.96082168 169.7182094 33 169 C48.37662418 165.57379918 59.61075473 155.36751571 67.85791016 142.48413086 C74.11821471 132.22501933 77.76657743 119.88914757 75.38671875 107.9140625 C73.06695832 99.14598125 69.47538038 92.94711156 62.0546875 87.59765625 C45.01986976 77.90781053 26.1581153 88.68908971 14 101 Z M-144 208 C-145.16711435 210.04689407 -145.16711435 210.04689407 -146 212 C-142.73011701 212.67138621 -139.45894951 213.33629263 -136.1875 214 C-135.25873047 214.19078125 -134.32996094 214.3815625 -133.37304688 214.578125 C-132.48037109 214.75859375 -131.58769531 214.9390625 -130.66796875 215.125 C-129.84578857 215.29257812 -129.0236084 215.46015625 -128.17651367 215.6328125 C-125.87484517 216.08317686 -125.87484517 216.08317686 -123 216 C-123.86714155 212.53143378 -124.6871288 210.34047749 -127.125 207.6875 C-133.03123046 204.22079951 -138.22460289 204.01222581 -144 208 Z M-148 218 C-147.71998862 222.01349645 -147.24236211 223.72035142 -144.5625 226.8125 C-140.76141836 230.05732579 -138.28819491 230.44951794 -133.3984375 230.42578125 C-129.31874308 229.70153582 -126.55644553 227.17295168 -124 224 C-124 223.34 -124 222.68 -124 222 C-127.43663614 221.32882733 -130.87444041 220.66383929 -134.3125 220 C-135.77719727 219.71382812 -135.77719727 219.71382812 -137.27148438 219.421875 C-138.20927734 219.24140625 -139.14707031 219.0609375 -140.11328125 218.875 C-140.97735596 218.70742188 -141.84143066 218.53984375 -142.73168945 218.3671875 C-145.11060196 217.92010153 -145.11060196 217.92010153 -148 218 Z " fill="#221E1F" transform="translate(483,51)"/>
<path d="M0 0 C-1.51342301 4.85936425 -4.30349367 7.9700052 -7.625 11.6875 C-8.71870483 12.93640039 -9.81114984 14.18640516 -10.90234375 15.4375 C-11.43456543 16.0459375 -11.96678711 16.654375 -12.51513672 17.28125 C-15.11685163 20.29277136 -17.57579136 23.41352759 -20.04296875 26.53515625 C-23.64128365 31.06716564 -27.32733545 35.52819085 -31 40 C-32.98 38.35 -34.96 36.7 -37 35 C-33.18823684 26.41854368 -25.47486141 19.29417843 -19.20703125 12.43359375 C-16.31779962 9.24776843 -13.51973729 5.98504222 -10.7265625 2.71484375 C-7.53490423 -0.45515168 -4.25833517 -0.09462967 0 0 Z " fill="#211D1E" transform="translate(345,233)"/>
</svg>
